<svg viewBox="0 0 64 64" xml:space="preserve" xmlns="http://www.w3.org/2000/svg" enable-background="new 0 0 64 64"><path d="M16.74 29.15v5.69l3.53.68c.23.78.55 1.55.95 2.28l-2.02 2.98 4.02 4.02 2.98-2.01c.73.39 1.49.7 2.28.94l.68 3.53h5.69l.67-3.53c.79-.23 1.55-.55 2.29-.94l2.97 2.01 4.03-4.02-2.02-2.98c.4-.73.71-1.5.95-2.28l3.52-.68v-5.69l-3.53-.67c-.23-.8-.55-1.56-.94-2.28l2.02-2.98-4.03-4.02-2.97 2.02c-.74-.4-1.5-.72-2.29-.95l-.67-3.53h-5.69l-.68 3.53c-.79.24-1.56.56-2.28.95l-2.98-2.02-4.02 4.02 2.02 2.98c-.39.72-.71 1.48-.95 2.28l-3.53.67zm5.04-5.68 1.69-1.69 2.66 1.8.55-.33c.89-.55 1.87-.95 2.9-1.21l.63-.15.6-3.15h2.38l.61 3.16.63.14c1.01.24 1.99.65 2.9 1.21l.55.33 2.66-1.8 1.68 1.69-1.8 2.65.34.55c.54.9.95 1.88 1.2 2.91l.15.62 3.15.61v2.38l-3.15.6-.15.63c-.24 1.01-.64 1.99-1.2 2.91l-.34.55 1.8 2.65-1.68 1.69-2.66-1.8-.55.33c-.91.56-1.89.97-2.9 1.21l-.63.15-.61 3.15h-2.38l-.6-3.15-.63-.15a10.01 10.01 0 0 1-2.9-1.21l-.55-.33-2.66 1.8-1.69-1.69 1.81-2.65-.34-.55a9.95 9.95 0 0 1-1.2-2.91l-.15-.63-3.16-.6v-2.38l3.15-.61.16-.62c.25-1.03.65-2.01 1.2-2.91l.34-.55-1.81-2.65z" fill="#dfd045" class="fill-000000"></path><path d="M32 37.96c3.29 0 5.97-2.67 5.97-5.96s-2.68-5.96-5.97-5.96c-3.28 0-5.96 2.67-5.96 5.96s2.68 5.96 5.96 5.96zM53.07 49.63l-13.13 5.03c-.5.19-1.01.33-1.54.42a5.839 5.839 0 0 0 1.37-3.78v-1h-8.4c-3.14 0-4.48-2.3-5.73-3.25a7.701 7.701 0 0 0-5.25-2.07h-2.24v-2.45H5.23V61.5h12.92v-2.45h2.17c.45 0 .89.12 1.28.35l6.76 3.89c.7.4 1.49.61 2.29.61.23 0 .47-.02.71-.06 11.178-1.76 17.339-5.649 27.41-9.62v-.67c0-2.919-2.928-4.973-5.7-3.92zm-39.63 8.01c-.83 0-1.5-.68-1.5-1.5 0-.83.67-1.5 1.5-1.5s1.5.67 1.5 1.5c0 .82-.67 1.5-1.5 1.5zm17.6 4.23c-.57.09-1.17-.02-1.68-.31l-6.76-3.9c-.69-.4-1.48-.61-2.28-.61h-2.17V46.98h2.24c1.44 0 2.82.55 3.88 1.53 1.13.83 2.985 3.79 7.1 3.79h6.27a3.873 3.873 0 0 1-3.74 2.88h-3.95v2h7.19c1.21 0 2.39-.22 3.52-.65l13.12-5.03c1.256-.492 2.57.263 2.91 1.43-8.848 3.478-14.906 7.24-25.65 8.94zM45.86 2.5v2.45h-2.17c-.45 0-.9-.12-1.29-.35L35.65.71c-.91-.52-1.97-.72-3-.55C21.458 1.92 15.299 5.816 5.23 9.79v.66c0 2.976 3 4.97 5.71 3.92l14.48-5.55h.28a5.867 5.867 0 0 0-1.47 3.88v1h8.41c1.44 0 2.82.54 3.88 1.53 1.183.87 3.01 3.79 7.1 3.79h2.24v2.45h12.91V2.5H45.86zm0 14.52h-2.24c-3.14 0-4.482-2.302-5.73-3.25a7.655 7.655 0 0 0-5.25-2.07h-6.28a3.894 3.894 0 0 1 3.75-2.88h3.94v-2h-9L10.22 12.5c-1.24.492-2.558-.259-2.9-1.43 8.844-3.478 14.906-7.24 25.64-8.94.58-.09 1.18.02 1.69.31l6.76 3.9c.69.4 1.48.61 2.28.61h2.17v10.07zm4.71-7.66c-.83 0-1.5-.67-1.5-1.5 0-.82.67-1.5 1.5-1.5.82 0 1.5.68 1.5 1.5 0 .83-.68 1.5-1.5 1.5z" fill="#dfd045" class="fill-000000"></path></svg>