<svg viewBox="0 0 500 500" xml:space="preserve" xmlns="http://www.w3.org/2000/svg"><path d="M469 360h-54.7v-27.4h27.3v-79.9l-23.5-70.6h-99.7v150.5h13.7V360h-41V154.7h146.7l31.2 93.6z" fill="#dfd045" class="fill-000000"></path><path d="M373.2 401.1c-30.2 0-54.8-24.6-54.8-54.8 0-30.2 24.6-54.8 54.8-54.8 30.2 0 54.8 24.6 54.8 54.8-.1 30.2-24.6 54.8-54.8 54.8zm0-82.2c-15.1 0-27.4 12.3-27.4 27.4 0 15.1 12.3 27.4 27.4 27.4 15.1 0 27.4-12.3 27.4-27.4 0-15.1-12.3-27.4-27.4-27.4zM113.1 360H58.4v-95.8h27.3v68.4h27.4zM318.4 360H195.2v-27.4h95.9V127.3H31V99.9h287.4z" fill="#dfd045" class="fill-000000"></path><path d="M154.2 401.1c-30.2 0-54.8-24.6-54.8-54.8 0-30.2 24.6-54.8 54.8-54.8s54.8 24.6 54.8 54.8c-.1 30.2-24.6 54.8-54.8 54.8zm0-82.2c-15.1 0-27.4 12.3-27.4 27.4 0 15.1 12.3 27.4 27.4 27.4s27.4-12.3 27.4-27.4c0-15.1-12.3-27.4-27.4-27.4zM44.7 154.7h123.2v27.4H44.7zM58.4 209.4h82.1v27.4H58.4z" fill="#dfd045" class="fill-000000"></path></svg>