<svg version="1.2" xmlns="http://www.w3.org/2000/svg" viewBox="0 0 256 154" width="200" height="120"><style>.a{fill:#dfd045}</style><path class="a" d="m77.9 127.5h-14.6c-34.9 0-63.3-28.3-63.3-63.2 0-34.9 28.4-63.3 63.3-63.3h191.7c0 0-1.2 30.8-39.9 30.8h-151.8c-17.9 0-32.5 14.6-32.5 32.5 0 17.9 14.6 32.5 32.5 32.5h14.7c8.5 0 15.4 6.8 15.4 15.4 0 8.5-7 15.3-15.5 15.3z"/><path class="a" d="m122.1 1l-14.6 30.8h107.6c38.7 0 39.9-30.8 39.9-30.8z"/><path class="a" d="m177.5 139.2l-52.2-92.1-26.7 48.8h26.5c8.5 0 15.4 6.8 15.4 15.4 0 8.5-6.9 15.4-15.4 15.4h-52.5c-5.4 0-10.5-2.9-13.2-7.5-2.7-4.7-2.8-10.5-0.2-15.3l52.4-95.8c2.8-4.9 7.8-8 13.4-8h0.1c5.6 0 10.7 3 13.3 7.8l80.3 142.2c0 0-30.5 9.3-41.2-10.9z"/><path class="a" d="m212.1 127.5h-112.8c-8.5 0-15.4-6.9-15.4-15.4 0-8.6 6.9-15.4 15.4-15.4h112.8c7.2 0 13.1-6 13.1-13.1 0-7.2-5.9-13.2-13.1-13.2-3 0-5.7-0.4-8.1-0.4-26.2 1-28.7-26.2-28.7-30.3h36.8c24.2 0 43.9 19.7 43.9 43.9 0 24.2-19.7 43.9-43.9 43.9z"/></svg>