<svg version="1.1" xmlns="http://www.w3.org/2000/svg" xmlns:xlink="http://www.w3.org/1999/xlink" width="224.5px" height="133.5px" viewBox="0,0,256,152.21875"><g fill="#faac3d" fill-rule="nonzero" stroke="none" stroke-width="1" stroke-linecap="butt" stroke-linejoin="miter" stroke-miterlimit="10" stroke-dasharray="" stroke-dashoffset="0" font-family="none" font-weight="none" font-size="none" text-anchor="none" style="mix-blend-mode: normal"><g transform="translate(0,-0.00454) scale(1.14031,1.14031)"><g><path d="M68.3,110.9h-12.8c-30.6,0 -55.5,-24.8 -55.5,-55.4c0,-30.6 24.9,-55.5 55.5,-55.5h168.1c0,0 -1,27 -35,27h-133.1c-15.7,0 -28.5,12.8 -28.5,28.5c0,15.7 12.8,28.5 28.5,28.5h12.9c7.5,0 13.5,6 13.5,13.5c0,7.5 -6.1,13.4 -13.6,13.4z"></path></g><path d="M107.1,0l-12.8,27h94.3c34,0 35,-27 35,-27z"></path><g><path d="M155.7,122.1l-45.8,-80.8l-23.4,42.8h23.2c7.5,0 13.5,6 13.5,13.5c0,7.5 -6,13.5 -13.5,13.5h-46c-4.8,0 -9.2,-2.5 -11.6,-6.6c-2.4,-4.1 -2.5,-9.2 -0.2,-13.4l46,-84c2.4,-4.3 6.8,-7 11.7,-7h0.1c4.9,0 9.4,2.6 11.7,6.8l70.4,124.7c0,0 -26.8,8.2 -36.1,-9.5z"></path></g><g><path d="M186,110.9h-98.9c-7.5,0 -13.5,-6 -13.5,-13.5c0,-7.5 6,-13.5 13.5,-13.5h98.9c6.3,0 11.5,-5.2 11.5,-11.5c0,-6.3 -5.2,-11.5 -11.5,-11.5c-2.6,0 -5,-0.4 -7.1,-0.4c-23,0.9 -25.2,-23 -25.2,-26.6h32.3c21.2,0 38.5,17.3 38.5,38.5c0,21.3 -17.3,38.5 -38.5,38.5z"></path></g></g></g></svg>