<svg viewBox="0 0 24 24" xml:space="preserve" xmlns="http://www.w3.org/2000/svg" enable-background="new 0 0 24 24"><path d="M12 2c-2.46 0-4.83.9-6.67 2.55a.998.998 0 1 0 1.33 1.49A7.981 7.981 0 0 1 12 4c4.41 0 8 3.59 8 8s-3.59 8-8 8c-1.97 0-3.87-.72-5.33-2.04a.998.998 0 1 0-1.33 1.49A9.93 9.93 0 0 0 12 22c5.51 0 10-4.49 10-10S17.51 2 12 2z" fill="#dfd045" class="fill-000000"></path><path d="M3 17h3c.55 0 1-.45 1-1h.76l1.79.89c.14.07.29.11.45.11h6c.5 0 .92-.37.99-.86l-.08-7c.04-.29-.04-.58-.23-.8-.19-.21-.47-.34-.76-.34H13V6c0-.55-.45-1-1-1h-1c-.27 0-.52.11-.71.29L7.59 8H7c0-.55-.45-1-1-1H3c-.55 0-1 .45-1 1v8c0 .55.45 1 1 1zm5-7c.27 0 .52-.11.71-.29L11 7.41V9c0 .55.45 1 1 1h3.13v5h-4.9l-1.79-.89A.926.926 0 0 0 8 14H7v-4h1zM4 9h1v6H4V9z" fill="#dfd045" class="fill-000000"></path></svg>